<?xml version="1.0" encoding="UTF-8"?><svg xmlns="http://www.w3.org/2000/svg" xmlns:xlink="http://www.w3.org/1999/xlink" fill-opacity="1" color-rendering="auto" color-interpolation="auto" text-rendering="auto" stroke="black" stroke-linecap="square" width="463" stroke-miterlimit="10" shape-rendering="auto" stroke-opacity="1" fill="black" stroke-dasharray="none" font-weight="normal" stroke-width="1" height="506" font-family="'Dialog'" font-style="normal" stroke-linejoin="miter" font-size="12px" stroke-dashoffset="0" image-rendering="auto">
  <!--Generated by ySVG 2.5-->
  <defs id="genericDefs"/>
  <g>
    <defs id="defs1">
      <clipPath clipPathUnits="userSpaceOnUse" id="clipPath1">
        <path d="M0 0 L463 0 L463 506 L0 506 L0 0 Z"/>
      </clipPath>
      <clipPath clipPathUnits="userSpaceOnUse" id="clipPath2">
        <path d="M121 182 L584 182 L584 688 L121 688 L121 182 Z"/>
      </clipPath>
    </defs>
    <g fill="rgb(204,255,255)" text-rendering="geometricPrecision" shape-rendering="geometricPrecision" transform="matrix(1,0,0,1,-121,-182)" stroke="rgb(204,255,255)">
      <path d="M145.7167 242.2986 L232.6667 242.2986 L223.0056 281.8472 L136.0556 281.8472 Z" fill-rule="evenodd" clip-path="url(#clipPath2)" stroke="none"/>
    </g>
    <g text-rendering="geometricPrecision" stroke-miterlimit="1.45" shape-rendering="geometricPrecision" transform="matrix(1,0,0,1,-121,-182)" stroke-linecap="butt">
      <path fill="none" d="M145.7167 242.2986 L232.6667 242.2986 L223.0056 281.8472 L136.0556 281.8472 Z" fill-rule="evenodd" clip-path="url(#clipPath2)"/>
      <text x="160.8592" xml:space="preserve" y="266.2272" clip-path="url(#clipPath2)" font-family="sans-serif" stroke="none">cat.json</text>
    </g>
    <g fill="rgb(233,120,38)" text-rendering="geometricPrecision" shape-rendering="geometricPrecision" transform="matrix(1,0,0,1,-121,-182)" stroke="rgb(233,120,38)">
      <rect x="136.0556" width="96.6111" height="39.5486" y="328.6389" clip-path="url(#clipPath2)" stroke="none"/>
    </g>
    <g text-rendering="geometricPrecision" stroke-miterlimit="1.45" shape-rendering="geometricPrecision" transform="matrix(1,0,0,1,-121,-182)" stroke-linecap="butt">
      <rect fill="none" x="136.0556" width="96.6111" height="39.5486" y="328.6389" clip-path="url(#clipPath2)"/>
      <text x="167.4861" xml:space="preserve" y="352.5675" clip-path="url(#clipPath2)" font-family="sans-serif" stroke="none">Kafka</text>
    </g>
    <g fill="rgb(255,102,0)" text-rendering="geometricPrecision" shape-rendering="geometricPrecision" transform="matrix(1,0,0,1,-121,-182)" stroke="rgb(255,102,0)">
      <rect x="136.0556" width="8.9375" height="39.5486" y="328.6389" clip-path="url(#clipPath2)" stroke="none"/>
    </g>
    <g text-rendering="geometricPrecision" stroke-miterlimit="1.45" shape-rendering="geometricPrecision" transform="matrix(1,0,0,1,-121,-182)" stroke-linecap="butt">
      <rect fill="none" x="136.0556" width="8.9375" height="39.5486" y="328.6389" clip-path="url(#clipPath2)"/>
    </g>
    <g fill="rgb(255,102,0)" text-rendering="geometricPrecision" shape-rendering="geometricPrecision" transform="matrix(1,0,0,1,-121,-182)" stroke="rgb(255,102,0)">
      <rect x="223.7292" width="8.9375" height="39.5486" y="328.6389" clip-path="url(#clipPath2)" stroke="none"/>
    </g>
    <g text-rendering="geometricPrecision" stroke-miterlimit="1.45" shape-rendering="geometricPrecision" transform="matrix(1,0,0,1,-121,-182)" stroke-linecap="butt">
      <rect fill="none" x="223.7292" width="8.9375" height="39.5486" y="328.6389" clip-path="url(#clipPath2)"/>
      <circle fill="none" r="7.1875" clip-path="url(#clipPath2)" cx="184.3611" cy="205.1111" stroke="gray"/>
    </g>
    <g fill="rgb(255,255,153)" text-rendering="geometricPrecision" shape-rendering="geometricPrecision" transform="matrix(1,0,0,1,-121,-182)" stroke="rgb(255,255,153)">
      <path d="M145.7167 398.1874 L232.6667 398.1874 L223.0056 437.7361 L136.0556 437.7361 Z" fill-rule="evenodd" clip-path="url(#clipPath2)" stroke="none"/>
    </g>
    <g text-rendering="geometricPrecision" stroke-miterlimit="1.45" shape-rendering="geometricPrecision" transform="matrix(1,0,0,1,-121,-182)" stroke-linecap="butt">
      <path fill="none" d="M145.7167 398.1874 L232.6667 398.1874 L223.0056 437.7361 L136.0556 437.7361 Z" fill-rule="evenodd" clip-path="url(#clipPath2)"/>
      <text x="175.6248" xml:space="preserve" y="422.1161" clip-path="url(#clipPath2)" font-family="sans-serif" stroke="none">DB</text>
    </g>
    <g fill="rgb(204,255,255)" text-rendering="geometricPrecision" shape-rendering="geometricPrecision" transform="matrix(1,0,0,1,-121,-182)" stroke="rgb(204,255,255)">
      <path d="M415.8889 242.2986 L502.8389 242.2986 L493.1778 281.8472 L406.2278 281.8472 Z" fill-rule="evenodd" clip-path="url(#clipPath2)" stroke="none"/>
    </g>
    <g text-rendering="geometricPrecision" stroke-miterlimit="1.45" shape-rendering="geometricPrecision" transform="matrix(1,0,0,1,-121,-182)" stroke-linecap="butt">
      <path fill="none" d="M415.8889 242.2986 L502.8389 242.2986 L493.1778 281.8472 L406.2278 281.8472 Z" fill-rule="evenodd" clip-path="url(#clipPath2)"/>
      <text x="419.7931" xml:space="preserve" y="266.2272" clip-path="url(#clipPath2)" font-family="sans-serif" stroke="none">person.json</text>
    </g>
    <g fill="rgb(233,120,38)" text-rendering="geometricPrecision" shape-rendering="geometricPrecision" transform="matrix(1,0,0,1,-121,-182)" stroke="rgb(233,120,38)">
      <rect x="406.2278" width="96.6111" height="39.5486" y="328.6389" clip-path="url(#clipPath2)" stroke="none"/>
    </g>
    <g text-rendering="geometricPrecision" stroke-miterlimit="1.45" shape-rendering="geometricPrecision" transform="matrix(1,0,0,1,-121,-182)" stroke-linecap="butt">
      <rect fill="none" x="406.2278" width="96.6111" height="39.5486" y="328.6389" clip-path="url(#clipPath2)"/>
      <text x="437.6583" xml:space="preserve" y="352.5675" clip-path="url(#clipPath2)" font-family="sans-serif" stroke="none">Kafka</text>
    </g>
    <g fill="rgb(255,102,0)" text-rendering="geometricPrecision" shape-rendering="geometricPrecision" transform="matrix(1,0,0,1,-121,-182)" stroke="rgb(255,102,0)">
      <rect x="406.2278" width="8.9375" height="39.5486" y="328.6389" clip-path="url(#clipPath2)" stroke="none"/>
    </g>
    <g text-rendering="geometricPrecision" stroke-miterlimit="1.45" shape-rendering="geometricPrecision" transform="matrix(1,0,0,1,-121,-182)" stroke-linecap="butt">
      <rect fill="none" x="406.2278" width="8.9375" height="39.5486" y="328.6389" clip-path="url(#clipPath2)"/>
    </g>
    <g fill="rgb(255,102,0)" text-rendering="geometricPrecision" shape-rendering="geometricPrecision" transform="matrix(1,0,0,1,-121,-182)" stroke="rgb(255,102,0)">
      <rect x="493.9014" width="8.9375" height="39.5486" y="328.6389" clip-path="url(#clipPath2)" stroke="none"/>
    </g>
    <g text-rendering="geometricPrecision" stroke-miterlimit="1.45" shape-rendering="geometricPrecision" transform="matrix(1,0,0,1,-121,-182)" stroke-linecap="butt">
      <rect fill="none" x="493.9014" width="8.9375" height="39.5486" y="328.6389" clip-path="url(#clipPath2)"/>
      <circle fill="none" r="7.1875" clip-path="url(#clipPath2)" cx="454.5333" cy="205.1111" stroke="gray"/>
    </g>
    <g fill="rgb(255,204,0)" text-rendering="geometricPrecision" shape-rendering="geometricPrecision" transform="matrix(1,0,0,1,-121,-182)" stroke="rgb(255,204,0)">
      <path d="M403.9333 430.7875 L454.5333 398.1875 L505.1333 430.7875 L454.5333 463.3875 Z" fill-rule="evenodd" clip-path="url(#clipPath2)" stroke="none"/>
    </g>
    <g text-rendering="geometricPrecision" stroke-miterlimit="1.45" shape-rendering="geometricPrecision" transform="matrix(1,0,0,1,-121,-182)" stroke-linecap="butt">
      <path fill="none" d="M403.9333 430.7875 L454.5333 398.1875 L505.1333 430.7875 L454.5333 463.3875 Z" fill-rule="evenodd" clip-path="url(#clipPath2)"/>
      <text x="432.8185" xml:space="preserve" y="427.9574" clip-path="url(#clipPath2)" font-family="sans-serif" stroke="none">Is a cat</text>
      <text x="424.2667" xml:space="preserve" y="441.9262" clip-path="url(#clipPath2)" font-family="sans-serif" stroke="none">available?</text>
    </g>
    <g fill="rgb(204,255,255)" text-rendering="geometricPrecision" shape-rendering="geometricPrecision" transform="matrix(1,0,0,1,-121,-182)" stroke="rgb(204,255,255)">
      <path d="M481.1167 493.3875 L568.0667 493.3875 L558.4056 532.9361 L471.4556 532.9361 Z" fill-rule="evenodd" clip-path="url(#clipPath2)" stroke="none"/>
    </g>
    <g text-rendering="geometricPrecision" stroke-miterlimit="1.45" shape-rendering="geometricPrecision" transform="matrix(1,0,0,1,-121,-182)" stroke-linecap="butt">
      <path fill="none" d="M481.1167 493.3875 L568.0667 493.3875 L558.4056 532.9361 L471.4556 532.9361 Z" fill-rule="evenodd" clip-path="url(#clipPath2)"/>
      <text x="503.7972" xml:space="preserve" y="517.3161" clip-path="url(#clipPath2)" font-family="sans-serif" stroke="none">Sorry</text>
    </g>
    <g fill="rgb(233,120,38)" text-rendering="geometricPrecision" shape-rendering="geometricPrecision" transform="matrix(1,0,0,1,-121,-182)" stroke="rgb(233,120,38)">
      <rect x="312.2556" width="96.6111" height="39.5486" y="493.3875" clip-path="url(#clipPath2)" stroke="none"/>
    </g>
    <g text-rendering="geometricPrecision" stroke-miterlimit="1.45" shape-rendering="geometricPrecision" transform="matrix(1,0,0,1,-121,-182)" stroke-linecap="butt">
      <rect fill="none" x="312.2556" width="96.6111" height="39.5486" y="493.3875" clip-path="url(#clipPath2)"/>
      <text x="342.2535" xml:space="preserve" y="517.3161" clip-path="url(#clipPath2)" font-family="sans-serif" stroke="none">Match</text>
    </g>
    <g fill="rgb(255,102,0)" text-rendering="geometricPrecision" shape-rendering="geometricPrecision" transform="matrix(1,0,0,1,-121,-182)" stroke="rgb(255,102,0)">
      <rect x="312.2556" width="8.9375" height="39.5486" y="493.3875" clip-path="url(#clipPath2)" stroke="none"/>
    </g>
    <g text-rendering="geometricPrecision" stroke-miterlimit="1.45" shape-rendering="geometricPrecision" transform="matrix(1,0,0,1,-121,-182)" stroke-linecap="butt">
      <rect fill="none" x="312.2556" width="8.9375" height="39.5486" y="493.3875" clip-path="url(#clipPath2)"/>
    </g>
    <g fill="rgb(255,102,0)" text-rendering="geometricPrecision" shape-rendering="geometricPrecision" transform="matrix(1,0,0,1,-121,-182)" stroke="rgb(255,102,0)">
      <rect x="399.9292" width="8.9375" height="39.5486" y="493.3875" clip-path="url(#clipPath2)" stroke="none"/>
    </g>
    <g text-rendering="geometricPrecision" stroke-miterlimit="1.45" shape-rendering="geometricPrecision" transform="matrix(1,0,0,1,-121,-182)" stroke-linecap="butt">
      <rect fill="none" x="399.9292" width="8.9375" height="39.5486" y="493.3875" clip-path="url(#clipPath2)"/>
    </g>
    <g fill="rgb(255,255,153)" text-rendering="geometricPrecision" shape-rendering="geometricPrecision" transform="matrix(1,0,0,1,-121,-182)" stroke="rgb(255,255,153)">
      <path d="M321.9167 562.9361 L408.8667 562.9361 L399.2056 602.4847 L312.2556 602.4847 Z" fill-rule="evenodd" clip-path="url(#clipPath2)" stroke="none"/>
    </g>
    <g text-rendering="geometricPrecision" stroke-miterlimit="1.45" shape-rendering="geometricPrecision" transform="matrix(1,0,0,1,-121,-182)" stroke-linecap="butt">
      <path fill="none" d="M321.9167 562.9361 L408.8667 562.9361 L399.2056 602.4847 L312.2556 602.4847 Z" fill-rule="evenodd" clip-path="url(#clipPath2)"/>
      <text x="351.8248" xml:space="preserve" y="586.8647" clip-path="url(#clipPath2)" font-family="sans-serif" stroke="none">DB</text>
    </g>
    <g fill="rgb(204,255,255)" text-rendering="geometricPrecision" shape-rendering="geometricPrecision" transform="matrix(1,0,0,1,-121,-182)" stroke="rgb(204,255,255)">
      <path d="M321.9167 632.4847 L408.8667 632.4847 L399.2056 672.0333 L312.2556 672.0333 Z" fill-rule="evenodd" clip-path="url(#clipPath2)" stroke="none"/>
    </g>
    <g text-rendering="geometricPrecision" stroke-miterlimit="1.45" shape-rendering="geometricPrecision" transform="matrix(1,0,0,1,-121,-182)" stroke-linecap="butt">
      <path fill="none" d="M321.9167 632.4847 L408.8667 632.4847 L399.2056 672.0333 L312.2556 672.0333 Z" fill-rule="evenodd" clip-path="url(#clipPath2)"/>
      <text x="321.2125" xml:space="preserve" y="656.4133" clip-path="url(#clipPath2)" font-family="sans-serif" stroke="none">Cat adopted!</text>
    </g>
    <g fill="rgb(204,255,255)" text-rendering="geometricPrecision" shape-rendering="geometricPrecision" transform="matrix(1,0,0,1,-121,-182)" stroke="rgb(204,255,255)">
      <path d="M145.7166 467.7361 L232.6667 467.7361 L223.0056 507.2847 L136.0555 507.2847 Z" fill-rule="evenodd" clip-path="url(#clipPath2)" stroke="none"/>
    </g>
    <g text-rendering="geometricPrecision" stroke-miterlimit="1.45" shape-rendering="geometricPrecision" transform="matrix(1,0,0,1,-121,-182)" stroke-linecap="butt">
      <path fill="none" d="M145.7166 467.7361 L232.6667 467.7361 L223.0056 507.2847 L136.0555 507.2847 Z" fill-rule="evenodd" clip-path="url(#clipPath2)"/>
      <text x="147.948" xml:space="preserve" y="491.6647" clip-path="url(#clipPath2)" font-family="sans-serif" stroke="none">Cat waiting!</text>
      <path fill="none" d="M184.3611 281.8452 L184.3611 320.6389" clip-path="url(#clipPath2)" stroke="gray"/>
      <path fill="gray" d="M184.3611 328.6389 L189.3611 316.6389 L184.3611 319.6389 L179.3611 316.6389 Z" clip-path="url(#clipPath2)" stroke="none"/>
      <path fill="none" d="M184.3611 212.2986 L184.3611 234.2896" clip-path="url(#clipPath2)" stroke="gray"/>
      <path fill="gray" d="M184.3611 242.2896 L189.3611 230.2896 L184.3611 233.2896 L179.3611 230.2896 Z" clip-path="url(#clipPath2)" stroke="none"/>
      <path fill="none" d="M184.3611 368.1875 L184.3611 390.1785" clip-path="url(#clipPath2)" stroke="gray"/>
      <path fill="gray" d="M184.3611 398.1785 L189.3611 386.1785 L184.3611 389.1785 L179.3611 386.1785 Z" clip-path="url(#clipPath2)" stroke="none"/>
      <path fill="none" d="M454.5333 281.8452 L454.5333 320.6389" clip-path="url(#clipPath2)" stroke="gray"/>
      <path fill="gray" d="M454.5333 328.6389 L459.5333 316.6389 L454.5333 319.6389 L449.5333 316.6389 Z" clip-path="url(#clipPath2)" stroke="none"/>
      <path fill="none" d="M454.5333 212.2986 L454.5333 234.2896" clip-path="url(#clipPath2)" stroke="gray"/>
      <path fill="gray" d="M454.5333 242.2896 L459.5333 230.2896 L454.5333 233.2896 L449.5333 230.2896 Z" clip-path="url(#clipPath2)" stroke="none"/>
      <path fill="none" d="M454.5333 368.1875 L454.5333 390.1732" clip-path="url(#clipPath2)" stroke="gray"/>
      <path fill="gray" d="M454.5333 398.1732 L459.5333 386.1732 L454.5333 389.1732 L449.5333 386.1732 Z" clip-path="url(#clipPath2)" stroke="none"/>
      <path fill="none" d="M505.1422 430.7875 L519.7611 430.7875 L519.7611 485.4129" clip-path="url(#clipPath2)" stroke="gray"/>
      <path fill="gray" d="M519.7611 493.4129 L524.7611 481.4129 L519.7611 484.4129 L514.7611 481.4129 Z" clip-path="url(#clipPath2)" stroke="none"/>
      <text x="509.5361" y="423.9574" clip-path="url(#clipPath2)" fill="gray" font-family="sans-serif" stroke="none" xml:space="preserve">no</text>
      <path fill="none" d="M403.9223 430.7875 L360.5611 430.7875 L360.5611 485.3875" clip-path="url(#clipPath2)" stroke="gray"/>
      <path fill="gray" d="M360.5611 493.3875 L365.5611 481.3875 L360.5611 484.3875 L355.5611 481.3875 Z" clip-path="url(#clipPath2)" stroke="none"/>
      <text x="363.5611" y="423.9574" clip-path="url(#clipPath2)" fill="gray" font-family="sans-serif" stroke="none" xml:space="preserve">yes</text>
      <path fill="none" d="M360.5611 532.9361 L360.5611 554.9271" clip-path="url(#clipPath2)" stroke="gray"/>
      <path fill="gray" d="M360.5611 562.9271 L365.5611 550.9271 L360.5611 553.9271 L355.5611 550.9271 Z" clip-path="url(#clipPath2)" stroke="none"/>
      <path fill="none" d="M360.5611 602.5087 L360.5611 624.4852" clip-path="url(#clipPath2)" stroke="gray"/>
      <path fill="gray" d="M360.5611 632.4852 L365.5611 620.4852 L360.5611 623.4852 L355.5611 620.4852 Z" clip-path="url(#clipPath2)" stroke="none"/>
      <path fill="none" d="M184.3611 437.7601 L184.3611 459.7366" clip-path="url(#clipPath2)" stroke="rgb(153,153,153)"/>
      <path fill="rgb(153,153,153)" d="M184.3611 467.7366 L189.3611 455.7366 L184.3611 458.7366 L179.3611 455.7366 Z" clip-path="url(#clipPath2)" stroke="none"/>
    </g>
  </g>
</svg>
